PathFileType	4	(X/Y/Z)	C:\Users\Basilio\Documents\Thesis Gigler\squatting_fais\c3dfiles\039\SLS_pre_front4\markers_experimental.trc
DataRate	CameraRate	NumFrames	NumMarkers	Units	OrigDataRate	OrigDataStartFrame	OrigNumFrames
200.000000	200.000000	4	63	mm	200.000000	1499	1999
Frame#	Time	FHD			LBHD			RBHD			C7			T10			CLAV			LSHO			LUUPA			LMUPA			LDUPA			LLEP			LMEP			LRAD			LUL			LRFIN			RSHO			RUPA1			RMUPA			RDUPA			RLEP			RMEP			RRAD			RUL			RUFIN			LASI			RASI			USACR			LSACR			RSACR			LTHI1			LTHI2			LTHI3			LTHI4			LLFC			LMFC			LTIB1			LTIB2			LTIB3			LTIB4			LLMAL			LMMAL			LHEE			LMT1			LMT2			LMT5			RTHI			RTHI2			RTHI3			RTHI4			RLFC			RMFC			RTIB1			RTIB2			RTIB3			RTIB4			RLMAL			RMMAL			RHEE			RMT1			RMT2			RMT5			*61			*62			
		X1	Y1	Z1	X2	Y2	Z2	X3	Y3	Z3	X4	Y4	Z4	X5	Y5	Z5	X6	Y6	Z6	X7	Y7	Z7	X8	Y8	Z8	X9	Y9	Z9	X10	Y10	Z10	X11	Y11	Z11	X12	Y12	Z12	X13	Y13	Z13	X14	Y14	Z14	X15	Y15	Z15	X16	Y16	Z16	X17	Y17	Z17	X18	Y18	Z18	X19	Y19	Z19	X20	Y20	Z20	X21	Y21	Z21	X22	Y22	Z22	X23	Y23	Z23	X24	Y24	Z24	X25	Y25	Z25	X26	Y26	Z26	X27	Y27	Z27	X28	Y28	Z28	X29	Y29	Z29	X30	Y30	Z30	X31	Y31	Z31	X32	Y32	Z32	X33	Y33	Z33	X34	Y34	Z34	X35	Y35	Z35	X36	Y36	Z36	X37	Y37	Z37	X38	Y38	Z38	X39	Y39	Z39	X40	Y40	Z40	X41	Y41	Z41	X42	Y42	Z42	X43	Y43	Z43	X44	Y44	Z44	X45	Y45	Z45	X46	Y46	Z46	X47	Y47	Z47	X48	Y48	Z48	X49	Y49	Z49	X50	Y50	Z50	X51	Y51	Z51	X52	Y52	Z52	X53	Y53	Z53	X54	Y54	Z54	X55	Y55	Z55	X56	Y56	Z56	X57	Y57	Z57	X58	Y58	Z58	X59	Y59	Z59	X60	Y60	Z60	X61	Y61	Z61	X62	Y62	Z62	X63	Y63	Z63	

1500	7.495	-326.3569335937501	1502.024536132813	-611.4372558593751	-488.0946044921876	1478.12353515625	-726.7863769531251	-456.4790344238282	1477.944213867188	-588.5103149414064	-524.9085083007814	1330.970947265625	-684.1096801757814	-622.3005981445314	1046.269409179688	-747.1430053710939	nan	nan	nan	-434.797576904297	1346.941650390625	-847.3317871093752	-275.5355834960938	1328.9033203125	-969.7573852539065	-251.7515869140626	1358.921997070313	-936.2036132812502	-206.7243041992188	1339.5244140625	-970.9063720703127	-139.532211303711	1348.7392578125	-967.7546997070315	-130.8614654541016	1276.931884765625	-939.091491699219	141.9283142089844	1387.407104492188	-899.7952880859377	137.4517211914063	1396.14013671875	-975.4636840820315	219.8919525146485	1428.40869140625	-896.1162109375002	-403.2208251953126	1321.136962890625	-536.8986816406251	-237.4349822998047	1254.655395507813	-451.8938293457032	-213.3482971191407	1291.22607421875	-477.4653320312501	-169.9287719726563	1252.872924804688	-460.3108825683595	-107.6660766601563	1268.68115234375	-473.8311462402345	-103.5074310302735	1204.154907226563	-517.9440307617189	174.9519805908203	1323.3203125	-568.2991333007814	179.4788818359375	1309.511840820313	-493.2350158691407	260.0564270019532	1360.338500976563	-563.6184692382814	-483.0841064453126	878.9497070312502	-871.3518676757815	-490.9298095703126	868.4683837890627	-645.0325927734376	-668.0595092773439	891.2858886718752	-761.4664306640626	-667.5983886718751	859.3428955078127	-790.0267333984377	-673.5108032226564	859.229675292969	-732.4766235351564	-329.1163635253907	701.3237915039064	-944.5559082031252	-244.3579101562501	700.6300048828126	-937.9041748046877	-228.4590911865235	743.5040893554689	-924.3967285156252	-208.0490722656251	651.8269042968751	-927.163513183594	-96.26010894775393	604.8825683593751	-921.4259033203127	-64.05943298339845	611.9898681640626	-806.2966308593752	61.93775558471681	580.6703491210939	-894.4321289062502	65.74195861816408	506.1225891113282	-938.8277587890627	91.39324188232423	538.9857177734376	-921.7368774414065	159.2694549560547	497.6840820312501	-883.625427246094	273.1545410156251	363.4051513671876	-919.4244384765627	288.1510314941407	374.8244628906251	-834.0557250976565	298.2904968261719	273.0034484863282	-880.2832641601565	405.3005371093751	480.7966613769532	-871.9488525390627	394.2422180175782	478.8565979003907	-911.7827758789065	381.3549194335938	435.965301513672	-966.5423583984377	-359.3299255371094	648.7252807617189	-581.1765747070314	-292.4234924316407	642.4671630859376	-578.3314819335939	-272.4309997558594	668.7238159179689	-583.7155151367189	-251.7593994140626	568.2816772460939	-587.6145629882814	-197.449203491211	468.803680419922	-623.5044555664064	-169.1811065673828	485.5752563476564	-731.5384521484376	-220.7701873779297	282.1404418945313	-682.3863525390626	-322.3473510742188	247.8186798095704	-677.0097045898439	-281.7603454589844	226.3019256591797	-686.9102172851564	-283.0560607910157	181.533676147461	-726.8164062500001	-378.1071166992188	115.9184341430664	-717.5756225585939	-345.7902221679688	138.6969299316407	-800.0982666015627	-452.184539794922	103.0670166015625	-773.3975219726565	-227.4449920654297	56.77381896972658	-779.5001220703127	-231.9497985839844	60.13069915771486	-733.4729003906251	-289.5325927734376	41.07040023803712	-685.8092041015626	nan	nan	nan	nan	nan	nan	
1501	7.5	-326.3628845214844	1501.683837890625	-611.6686401367189	-488.035614013672	1477.673461914063	-727.0317993164064	-456.5994262695314	1477.650390625	-588.7833862304689	-525.0634155273439	1330.4951171875	-684.1051025390626	-622.4539184570314	1045.785278320313	-747.0111694335939	nan	nan	nan	-435.0485839843751	1346.527099609375	-847.3875122070315	-275.6815490722657	1328.547973632813	-969.724060058594	-252.0655670166016	1358.46630859375	-936.270202636719	-206.9601135253907	1339.045654296875	-970.8978271484377	-139.8009033203125	1348.3369140625	-967.7672119140627	-131.0274810791016	1276.468017578125	-939.036315917969	141.7088928222657	1387.055419921875	-899.724060058594	137.1487731933594	1395.7666015625	-975.3723144531252	219.6290893554688	1428.021118164063	-896.0935058593752	-403.2807617187501	1320.7314453125	-536.8676757812501	-237.5447845458985	1254.385620117188	-451.7225952148439	-213.4211425781251	1290.92724609375	-477.248748779297	-169.9421081542969	1252.48095703125	-459.9839172363282	-107.6831359863282	1268.378051757813	-473.6560974121095	-103.4854202270508	1204.2177734375	-517.5422973632814	175.0185852050782	1323.165771484375	-567.8414916992189	179.4010162353516	1309.462158203125	-492.8240966796876	260.1126708984376	1360.1650390625	-563.2233276367189	-483.3646545410157	878.5640258789065	-871.3380126953127	-491.0102539062501	868.0562133789065	-644.8934326171876	-668.1721801757814	890.890075683594	-761.2095947265626	-667.8900146484376	858.897644042969	-789.777526855469	-673.6990356445314	858.8718872070315	-732.3462524414064	-329.3929138183594	701.0557861328126	-944.5207519531252	-244.6724700927735	700.2825927734376	-937.8359985351565	-228.7952728271485	743.0917968750001	-924.200378417969	-208.3572540283204	651.3701782226564	-927.1350097656252	-96.58994293212893	604.3278198242189	-921.3269042968752	-64.44003295898439	611.3252563476564	-806.3405761718752	61.61193084716798	580.0859375000001	-894.3916625976565	65.5420379638672	505.5996093750001	-939.0117187500002	91.0027542114258	538.1406860351564	-921.7233886718752	158.8717346191407	497.1335449218751	-883.5391235351565	272.8831787109376	362.9515991210938	-919.4731445312502	287.7121582031251	374.3050842285157	-834.0852661132815	297.9730834960938	272.6600952148438	-880.301452636719	404.7534790039064	480.0894775390626	-871.7813720703127	393.9264221191407	478.4492187500001	-911.6925048828127	381.0994262695313	435.5421447753907	-966.3604736328127	-359.0275878906251	648.2442016601564	-581.7141723632814	-292.3010864257813	642.2763061523439	-578.9257812500001	-272.2611694335938	668.4227905273439	-584.3447265625001	-251.5775451660157	568.1550903320314	-588.3768310546876	-197.2044830322266	468.9210510253907	-624.1163940429689	-168.9627227783203	485.4133605957032	-732.5376586914064	-220.4631500244141	281.9264221191407	-683.1440429687501	-322.0086975097657	247.7593841552735	-677.6232910156251	-281.5710144042969	226.3018493652344	-687.5397338867189	-282.9402160644532	181.4010009765625	-727.1994018554689	-378.0084228515626	115.9533309936524	-717.9340820312501	-345.8112182617188	138.5271148681641	-800.474548339844	-452.187957763672	102.9852294921875	-773.520690917969	-227.4899139404297	56.72168350219728	-779.7534790039065	-231.8266296386719	60.07386779785158	-733.4889526367189	-289.4966430664063	41.1732292175293	-685.8406372070314	nan	nan	nan	nan	nan	nan	
1502	7.505	-326.4514770507813	1501.216064453125	-611.8442993164064	-488.1876831054689	1477.352783203125	-727.1122436523439	-456.7360229492189	1477.354248046875	-588.8954467773439	-525.2490844726564	1330.057739257813	-684.0758666992189	-622.6362915039064	1045.278198242188	-746.8320312500001	nan	nan	nan	-434.8715820312501	1345.958984375	-847.1900634765627	-275.8970031738282	1328.097045898438	-969.7054443359377	-252.3212890625001	1357.903930664063	-936.263122558594	-207.1737365722657	1338.546752929688	-970.895935058594	-139.9483184814453	1347.952026367188	-967.7491455078127	-131.2777862548828	1276.108276367188	-939.0716552734377	141.5072631835938	1386.716430664063	-899.6413574218752	136.9829406738282	1395.371337890625	-975.2854614257815	219.3472900390626	1427.743408203125	-896.0657348632815	-403.3628234863282	1320.320678710938	-536.7839355468751	-237.5740661621094	1254.133056640625	-451.5344848632814	-213.4530487060547	1290.637084960938	-477.0826416015626	-169.9449615478516	1252.3359375	-459.6963500976564	-107.6784133911133	1268.222900390625	-473.4851379394532	-103.4781341552735	1203.989624023438	-517.2906494140626	175.0050964355469	1323.002563476563	-567.4293823242189	179.4121246337891	1309.393188476563	-492.4422302246095	260.1419982910157	1360.00048828125	-562.7969970703126	-483.9101562500001	878.154479980469	-871.287780761719	-491.0918273925782	867.6209716796877	-644.7782592773439	-668.4000854492189	890.6091918945315	-761.0289916992189	-668.0961303710939	858.4375000000002	-789.5609130859377	-673.8628540039064	858.4515380859377	-732.1553344726564	-329.7383422851563	700.6265869140626	-944.5614013671877	-244.9447937011719	699.7786865234376	-937.787292480469	-229.0590209960938	742.6297607421876	-924.0561523437502	-208.6029663085938	651.1044311523439	-927.1047973632815	-97.00547790527347	603.8520507812501	-921.2461547851565	-64.7749481201172	610.8096313476564	-806.451110839844	61.38369369506837	579.4914550781251	-894.3284301757815	65.17158508300783	505.0351562500001	-939.051696777344	90.83738708496095	537.5622558593751	-921.8254394531252	158.5337829589844	496.4495239257814	-883.4453125000002	272.5793457031251	362.4187316894532	-919.4934692382815	287.3455810546876	373.6815185546876	-834.1267089843752	297.7462768554688	272.1762695312501	-880.5899658203127	404.4571533203126	479.5785217285157	-871.3538208007815	393.5785522460939	478.1144104003907	-911.2463378906252	380.8651428222657	435.1031799316407	-966.174987792969	-358.7601318359376	647.9547729492189	-582.2293090820314	-292.1267089843751	642.0167236328126	-579.3703613281251	-272.1054992675782	668.0068969726564	-584.8512573242189	-251.055160522461	567.8840332031251	-589.0887451171876	-196.7551727294922	469.0432434082032	-624.5040893554689	-168.6713104248047	485.2408752441407	-733.2530517578126	-220.2009429931641	281.9351196289063	-683.8338012695314	-321.7917175292969	247.7259674072266	-678.1514282226564	-281.3390197753907	226.2409057617188	-688.0100708007814	-282.8070678710938	181.4097290039063	-727.5600585937501	-377.9008178710938	115.9183197021485	-718.1536254882814	-345.7443542480469	138.6301727294922	-800.7238769531252	-452.1669311523439	102.9683914184571	-773.6042480468752	-227.425765991211	56.5927200317383	-779.9578857421877	-231.8423156738282	60.04409408569337	-733.6324462890626	-289.4698486328126	41.36041641235352	-685.9351806640626	nan	nan	nan	nan	nan	nan	
1503	7.51	-326.5698242187501	1500.821411132813	-612.0070190429689	-488.2534179687501	1476.831787109375	-727.1611938476564	-456.7761535644532	1477.069702148438	-589.0071411132814	-525.3194580078126	1329.583862304688	-684.1376342773439	-622.7766723632814	1044.837524414063	-746.6990966796876	nan	nan	nan	-435.0360107421876	1345.538452148438	-847.170349121094	-276.1739501953126	1327.721923828125	-969.6990966796877	-252.5650787353516	1357.42333984375	-936.2906494140627	-207.421615600586	1338.17236328125	-970.900817871094	-140.2462921142578	1347.567260742188	-967.783142089844	-131.4698333740235	1275.768432617188	-939.105407714844	141.2166748046875	1386.484008789063	-899.6921386718752	136.7702789306641	1395.000732421875	-975.283386230469	219.076889038086	1427.418334960938	-895.9888305664065	-403.3445434570314	1319.84912109375	-536.6723022460939	-237.5695343017579	1253.937377929688	-451.338592529297	-213.7911376953126	1290.22705078125	-477.1553955078126	-170.0036773681641	1252.080810546875	-459.4847717285157	-107.7099227905274	1268.096313476563	-473.2945556640626	-103.447265625	1203.769653320313	-516.8966064453126	175.0317687988282	1322.901489257813	-566.9976806640626	179.4061889648438	1309.249633789063	-492.0183105468751	260.1041564941407	1359.921997070313	-562.3665771484376	-484.3961486816407	877.7716064453127	-871.0910644531252	-491.0660095214845	867.0152587890627	-644.5652465820314	-668.4947509765626	890.024841308594	-760.7937011718751	-668.2431640625001	858.0818481445315	-789.3103637695315	-674.0974731445314	858.0859985351565	-731.9888916015626	-330.3977050781251	699.8828125000001	-944.678405761719	-245.2908477783204	699.3814697265626	-937.7854003906252	-229.3685455322266	742.1876220703126	-923.9135742187502	-208.8625030517579	650.7531738281251	-927.1241455078127	-97.22889709472659	603.2723999023439	-921.1142578125002	-65.27527618408205	610.1941528320314	-806.5317993164065	61.06698989868165	579.0340576171876	-894.374694824219	64.7946243286133	504.6054992675782	-938.8379516601565	90.46670532226564	537.2062377929689	-921.6864013671877	158.1741333007813	496.2430725097657	-883.1520996093752	272.2717590332032	361.6670227050782	-919.3973388671877	287.1386413574219	373.1794433593751	-834.074401855469	297.4938354492188	271.7187194824219	-880.622985839844	404.098602294922	479.3560485839845	-871.1949462890627	393.2630004882814	477.7749633789064	-910.9918212890627	380.6116333007813	434.5808715820314	-966.0745239257815	-358.5969543457032	647.5214843750001	-582.5737304687501	-291.9440917968751	641.7338867187501	-579.7855834960939	-271.9623107910157	667.8383178710939	-585.3582763671876	-250.6806182861329	567.5252685546876	-589.6629638671876	-196.2043762207032	468.4353942871095	-625.2869262695314	-168.5043487548828	485.279998779297	-733.7920532226564	-220.0271453857422	281.9488525390626	-684.3344116210939	-321.5445861816407	247.6656494140626	-678.5173339843751	-281.2789306640626	226.1704406738282	-688.3602905273439	-282.6764526367188	181.483139038086	-727.9156494140626	-377.8147888183594	115.9340896606446	-718.4064941406251	-345.9041748046876	138.2914428710938	-801.1150512695315	-452.1505432128907	102.9333572387696	-773.6595458984377	-227.4331665039063	56.56543731689455	-780.1961059570315	-231.8048248291016	60.02629852294923	-733.6914672851564	-289.4747619628907	41.47207260131837	-686.0216064453126	nan	nan	nan	nan	nan	nan	
